<svg width="60" height="60" viewBox="0 0 60 60" fill="none" xmlns="http://www.w3.org/2000/svg">
<path d="M54.7483 22.225L52.1233 11.3C51.5733 9.05 49.6233 7.5 47.3483 7.5H12.6233C10.3733 7.5 8.39831 9.075 7.87331 11.3L5.24831 22.225C4.64831 24.775 5.19831 27.375 6.79831 29.425C6.99831 29.7 7.27331 29.9 7.49831 30.15V47.5C7.49831 50.25 9.74831 52.5 12.4983 52.5H47.4983C50.2483 52.5 52.4983 50.25 52.4983 47.5V30.15C52.7233 29.925 52.9983 29.7 53.1983 29.45C54.7983 27.4 55.3733 24.775 54.7483 22.225ZM47.2733 12.475L49.8983 23.4C50.1483 24.45 49.9233 25.5 49.2733 26.325C48.9233 26.775 48.1733 27.5 46.9233 27.5C45.3983 27.5 44.0733 26.275 43.8983 24.65L42.4483 12.5L47.2733 12.475ZM32.4983 12.5H37.3983L38.7483 23.8C38.8733 24.775 38.5733 25.75 37.9233 26.475C37.3733 27.125 36.5733 27.5 35.5483 27.5C33.8733 27.5 32.4983 26.025 32.4983 24.225V12.5ZM21.2233 23.8L22.5983 12.5H27.4983V24.225C27.4983 26.025 26.1233 27.5 24.2733 27.5C23.4233 27.5 22.6483 27.125 22.0483 26.475C21.7367 26.1083 21.5028 25.6821 21.361 25.2223C21.2192 24.7624 21.1723 24.2785 21.2233 23.8ZM10.0983 23.4L12.6233 12.5H17.5483L16.0983 24.65C15.8983 26.275 14.5983 27.5 13.0733 27.5C11.8483 27.5 11.0733 26.775 10.7483 26.325C10.0733 25.525 9.84831 24.45 10.0983 23.4ZM12.4983 47.5V32.425C12.6983 32.45 12.8733 32.5 13.0733 32.5C15.2483 32.5 17.2233 31.6 18.6733 30.125C20.1733 31.625 22.1733 32.5 24.4483 32.5C26.6233 32.5 28.5733 31.6 30.0233 30.175C31.4983 31.6 33.4983 32.5 35.7483 32.5C37.8483 32.5 39.8483 31.625 41.3483 30.125C42.7983 31.6 44.7733 32.5 46.9483 32.5C47.1483 32.5 47.3233 32.45 47.5233 32.425V47.5H12.4983Z" fill="white"/>
</svg>
